<?xml version="1.0" ?><!DOCTYPE svg  PUBLIC '-//W3C//DTD SVG 1.1//EN'  'http://www.w3.org/Graphics/SVG/1.1/DTD/svg11.dtd'><svg height="512px" style="enable-background:new 0 0 512 512;" version="1.1" viewBox="0 0 512 512" width="512px" xml:space="preserve" xmlns="http://www.w3.org/2000/svg" xmlns:xlink="http://www.w3.org/1999/xlink"><g id="_x32_47_x2C__recruitment_x2C__search_x2C__find_x2C__human_rescource_x2C__people"><g><path d="M286.103,122.039v5.863c0.643-0.174,1.334-0.1,1.955,0.148l0,0h0.024    c0.196,0.074,0.393,0.172,0.593,0.271l29.087,12.665c1.141,0.495,1.832,1.606,1.832,2.77v25.626c0,1.683-1.361,3.043-3.018,3.043    h-37.353h-0.073h-14.494h-37.425c-1.657,0-3.018-1.36-3.018-3.043v-25.626c0-1.311,0.842-2.448,2.028-2.869l29.438-12.813    l0.049-0.023h0.024l0,0l0.025-0.025h0.024h0.024V128h0.025h0.024l0.024-0.023h0.025h0.024l0.024-0.025l0,0h0.049v-0.025h0.024    h0.024h0.025l0.024-0.023h0.024h0.028l0,0h0.024l0,0l0.024-0.025h0.025l0,0h0.049l0.025-0.024l0,0h0.024h0.049l0,0h0.024    l0.024-0.025h0.025h0.024h0.024h0.024l0,0h0.049h0.024l0,0l0.049-0.024h0.028l0,0h0.024h0.049l0,0h0.025h0.049l0,0h0.025h0.024    h0.049h0.024h0.024h0.025h0.024h0.024h0.024l0,0h0.049h0.025h0.027l0.05,0.024l0,0h0.024h0.024h0.024h0.024h0.024h0.025l0,0    l0.049,0.025h0.024l0,0h0.024h0.049l0.025,0.024h0.024h0.024h0.024l0.024,0.025h0.024h0.053l0.024,0.023l0,0h0.05h0.024    l0.024,0.025v-6.332c-1.656-1.064-3.214-2.301-4.601-3.686l-0.172-0.197c-4.776-4.873-7.721-11.553-7.721-18.874    c0-7.445,3.018-14.198,7.893-19.071c3.337-3.34,7.545-5.813,12.269-7.05h0.074l0.172-0.049l0.249-0.075l0.221-0.049h0.05    l0.249-0.049l0.024-0.025l0.222-0.049l0.122-0.025l0.127-0.025l0.196-0.024l0.073-0.024l0.25-0.049l0,0l0.27-0.051h0.074    l0.175-0.024l0.147-0.024l0.123-0.024l0.225-0.024h0.024l0.271-0.051h0.024l0.249-0.023l0.099-0.025h0.147l0.2-0.025h0.073    L269.924,72l0.249-0.025l0.074-0.025h0.196l0.15-0.023h0.123h0.221h0.05l0.273-0.025h0.024h0.246h0.102l0.147-0.024h0.196h0.074    h0.273h0.099h0.098h0.102h0.05h0.024h0.099l0.098,0.024h0.074h0.073h0.024h0.103h0.098h0.074h0.024h0.073h0.099l0.102,0.025h0.074    h0.024h0.073h0.099h0.147l0.024,0.023h0.102h0.099h0.073h0.05l0.049,0.025h0.098h0.103c6.527,0.569,12.392,3.438,16.743,7.816    l0.197,0.198l0,0l0.249,0.272l0.123,0.123l0.073,0.049c0.568,0.619,1.141,1.287,1.66,1.955l0.049,0.074    c3.485,4.551,5.566,10.24,5.566,16.399c0,7.421-3.019,14.173-7.918,19.071C289.813,119.517,288.033,120.901,286.103,122.039     M295.648,202.652c-0.912,0.271-1.828,0.544-2.77,0.791l-0.098,0.025l-0.074,0.025l-0.494,0.123l-0.074,0.025l-0.102,0.024    l-0.073,0.024h-0.074l-0.099,0.025l-0.146,0.049l-0.103,0.025l-0.073,0.023l-0.421,0.1l-0.074,0.025H290.9l-0.099,0.023    l-0.396,0.1l-0.421,0.1l-0.147,0.023l-0.147,0.051l-0.421,0.074l-0.123,0.049l-0.151,0.024l-0.147,0.025l-0.122,0.024    l-0.147,0.024l-0.422,0.099l-0.147,0.025l-0.15,0.024l-0.123,0.024l-0.147,0.051l-0.15,0.023h-0.025l-0.122,0.025l-0.123,0.025    l-0.147,0.024l-0.151,0.024l-0.147,0.024l-0.122,0.024l-0.151,0.025l-0.049,0.025h-0.099l-0.147,0.023l-0.122,0.025l-0.151,0.024    l-0.147,0.05l-0.147,0.025h-0.147l-0.126,0.023l-0.147,0.025l-0.147,0.025l-0.151,0.023l-0.147,0.025l-0.122,0.024l-0.147,0.024    l-0.077,0.025h-0.074l-0.147,0.024L284,205.299l-0.126,0.025l-0.147,0.024h-0.147l-0.147,0.024l-0.102,0.025h-0.049l-0.147,0.025    l-0.123,0.023l-0.151,0.025h-0.147l-0.146,0.024l-0.147,0.024h-0.127l-0.024,0.025l-0.295,0.024l-0.123,0.024l-0.15,0.025h-0.147    l-0.147,0.024l-0.151,0.025l0,0h-0.073h-0.073l-0.123,0.024l-0.147,0.024h-0.151l-0.147,0.024l-0.147,0.025h-0.126l-0.123,0.024    h-0.024h-0.147l-0.147,0.024h-0.15l-0.271,0.025l-0.151,0.024h-0.146v0.024h-0.147l-0.274,0.025l-0.147,0.025h-0.147l-0.15,0.023    h-0.147l0,0h-0.147l-0.123,0.025h-0.15l-0.147,0.024h-0.147h-0.147l-0.572,0.05h-0.147l-0.716,0.049h-0.151    c-3.039,0.148-6.081,0.124-9.075-0.074l3.019,25.726l29.062-3.39L295.648,202.652z M366.541,229.392    c0.494-3.438-0.246-7.05-2.422-10.019l-0.074-0.073c-2.203-2.968-5.443-4.774-8.883-5.269c-3.41-0.495-6.998,0.271-9.967,2.449    c-34.456,27.209-71.66,53.329-107.106,79.723c-0.863,0.617-2.004,0.791-3.018,0.346c-1.534-0.668-2.25-2.449-1.583-3.982    l2.724-6.135c7.668-17.191,15.729-35.272,10.785-49.174l-0.049-0.1c-1.288-3.586-3.169-6.233-5.32-7.643l-0.172-0.1    c-1.534-0.965-3.264-1.311-5.047-0.939c-2.004,0.42-4.155,1.731-6.355,4.057c-5.121,5.441-10.044,16.004-13.333,33.17    c-1.509,7.916-6.604,12.863-11.873,18.008c-8.163,7.94-16.895,16.449-9.128,39.132c0.319,0.965,0.147,2.077-0.544,2.919    l-3.513,4.18l69.853,93.896l20.334-2.572c27.456-20.457,59.364-41.877,85.387-63.546c2.97-2.201,4.772-5.466,5.268-8.88    c0.495-3.438-0.273-7.05-2.474-10.018l-0.025-0.025c-2.176-2.943-5.365-4.749-8.73-5.269c-3.363-0.544-6.949,0.173-9.943,2.275    c-1.337,0.94-3.189,0.644-4.18-0.667c-0.99-1.336-0.719-3.24,0.643-4.255l19.319-14.372c2.966-2.201,4.773-5.466,5.292-8.879    c0.496-3.439-0.298-7.074-2.523-10.043c-2.176-2.943-5.344-4.75-8.707-5.27c-3.39-0.543-6.977,0.174-9.941,2.275    c-1.338,0.941-3.219,0.645-4.184-0.667c-0.986-1.335-0.716-3.24,0.621-4.255l15.088-11.205c2.969-2.226,4.772-5.467,5.268-8.904    c0.52-3.438-0.271-7.05-2.499-10.043c-2.176-2.918-5.366-4.725-8.707-5.269c-3.387-0.52-6.974,0.198-9.968,2.3    c-1.336,0.94-3.189,0.644-4.154-0.667c-1.015-1.36-0.717-3.265,0.617-4.255l17.982-13.382    C364.217,236.07,366.021,232.83,366.541,229.392z M266.61,267.41l40.22-29.979l-0.446-3.858l-3.856,0.47h-0.074h-0.077    l-35.123,4.106h-0.073l-0.074,0.024l-3.86,0.444L266.61,267.41z M235.542,422.082c2.028,2.721,2.772,6.035,2.302,9.151    c-0.446,3.118-2.103,6.086-4.85,8.114c-2.72,2.027-6.033,2.77-9.149,2.325c-3.117-0.471-6.061-2.128-8.114-4.873    c-2.029-2.721-2.748-6.035-2.302-9.152c0.445-3.117,2.102-6.061,4.825-8.113l0.221-0.124c2.695-1.93,5.914-2.621,8.957-2.177    C230.547,417.679,233.513,419.337,235.542,422.082z M257.806,428.983l-0.05-0.049l-0.024-0.026l-0.024-0.049l-71.488-96.072l0,0    l-41.826,31.142l76.434,102.727l41.851-31.117L257.806,428.983z M254.093,89.215l1.361,0.347c1.411,0.321,2.92,0.47,4.503,0.47    c4.429,0,8.56-1.385,11.896-3.76c1.138-0.816,2.201-1.731,3.166-2.746l0.024-0.049l0.024-0.025l0.05-0.049l0.126-0.148l0,0    l0.049-0.049l0.05-0.051l0.221-0.247l0,0l0.024-0.049l0.273-0.296l0,0c0.643-0.793,1.235-1.633,1.78-2.523l0.568-0.965    l-0.442-0.148h-0.102l-0.074-0.025l-0.098-0.024l-0.074-0.024l-0.099-0.025l-0.098-0.024c-1.015-0.272-2.105-0.445-3.193-0.521    h-0.025h-0.073l0,0l-0.074-0.023l0,0h-0.196h-0.024h-0.053h-0.024h-0.049h-0.05l-0.024-0.025h-0.049h-0.024h-0.074l0,0h-0.073    h-0.024h-0.05h-0.053h-0.024h-0.073l0,0h-0.074h-0.024h-0.049h-0.024l-0.05-0.024h-0.049h-0.024h-0.074l0,0h-0.077h-0.024h-0.049    h-0.049h-0.025h-0.073h-0.196h-0.053h-0.147l-0.123,0.024h-0.098h-0.176h-0.024h-0.222h-0.024l-0.172,0.025h-0.077h-0.123    l-0.147,0.023h-0.049l-0.2,0.025h-0.024h-0.196l-0.05,0.025h-0.147l-0.102,0.024h-0.098l-0.172,0.024h-0.025l-0.199,0.025h-0.025    l-0.196,0.024l-0.073,0.024l-0.123,0.025l-0.372,0.049h-0.024l-0.2,0.051h-0.049l-0.147,0.023l-0.099,0.025l-0.099,0.024    l-0.372,0.074l-0.024,0.024c-3.836,0.866-7.247,2.845-9.942,5.516C256.296,85.703,255.058,87.385,254.093,89.215z M277.494,89.883    c-0.643,0.545-1.285,1.039-1.979,1.534c-4.401,3.116-9.771,4.946-15.558,4.946c-1.979,0-3.934-0.222-5.864-0.643    c-0.691-0.148-1.383-0.346-2.078-0.544c-0.221,1.187-0.319,2.425-0.319,3.686c0,5.615,2.25,10.735,5.885,14.445l0.15,0.148    c3.734,3.735,8.904,6.035,14.593,6.035c5.714,0,10.858-2.3,14.593-6.035c3.762-3.735,6.061-8.905,6.061-14.594    c0-0.989-0.073-1.979-0.196-2.919c-3.092-0.198-6.012-0.939-8.731-2.078C281.674,92.852,279.473,91.49,277.494,89.883z     M282.937,83.502c-0.347,0.568-0.719,1.113-1.115,1.656l-0.05,0.074c1.46,1.139,3.043,2.078,4.752,2.795    c1.31,0.57,2.695,0.99,4.106,1.262l-0.024-0.049l-0.024-0.074l-0.028-0.049l0,0l-0.049-0.075l-0.05-0.124h-0.024l-0.368-0.643l0,0    l-0.028-0.074l-0.049-0.05l-0.024-0.049l-0.025-0.05l-0.024-0.025l-0.098-0.172l0,0l-0.246-0.396l-0.028-0.024l-0.024-0.024    l-0.073-0.124l-0.05-0.05l0,0l-0.024-0.074l-0.52-0.717h-0.024l-0.024-0.05l-0.049-0.05l-0.299-0.396l-0.024-0.05l-0.049-0.049    l0,0l-0.05-0.05l-0.073-0.099l-0.024-0.025l-0.323-0.371l0,0c-0.271-0.321-0.544-0.618-0.814-0.891l-0.175-0.148    c-0.913-0.914-1.902-1.756-2.99-2.498l-0.2,0.347l-0.396,0.742l-0.147,0.223l-0.123,0.223L282.937,83.502z M280.017,132.898    v-8.188c-2.425,0.717-5.021,1.113-7.692,1.113c-2.92,0-5.738-0.471-8.384-1.336v8.88l7.492,7.224L280.017,132.898z     M284.369,137.129l-8.458,7.568h8.707L284.369,137.129z M278.979,150.758l2.72,15.583h31.835v-20.58l-23.152-10.093l0.396,11.973    c0.049,1.657-1.264,3.067-2.944,3.117H278.979z M266.982,144.697l-7.373-7.074l-0.368,7.074H266.982z M262.108,166.341    l2.72-15.583l-8.781,0.024c-1.656,0-3.042-1.386-3.042-3.042l0.646-12.17l-23.377,10.19v20.58H262.108z M275.539,166.341    l-2.72-15.559h-1.832l-2.72,15.559H275.539z M296.294,270.75c1.334-1.015,3.239-0.742,4.254,0.594    c1.014,1.335,0.74,3.24-0.594,4.254l-48.357,36.584c-1.337,0.989-3.243,0.717-4.257-0.594c-1.014-1.336-0.741-3.266,0.597-4.254    L296.294,270.75z M261.069,32.694c-1.656,0.198-3.166-0.989-3.338-2.671c-0.2-1.658,0.986-3.166,2.646-3.34    c27.258-3.19,53.229,4.996,73.166,20.777c19.962,15.781,33.888,39.182,37.078,66.441c0.2,1.656-1.015,3.166-2.671,3.338    c-1.656,0.198-3.166-0.988-3.361-2.671c-2.994-25.576-16.057-47.566-34.779-62.358C311.084,37.395,286.695,29.727,261.069,32.694z     M209.546,194.812c1.235,1.113,1.333,3.018,0.221,4.255c-1.112,1.262-3.018,1.36-4.253,0.246    c-8.879-7.964-16.351-17.512-21.917-28.271c-5.366-10.365-8.977-21.867-10.413-34.136c-0.196-1.657,1.014-3.166,2.671-3.364    c1.656-0.173,3.166,1.015,3.365,2.672c1.334,11.527,4.749,22.312,9.771,32.057C194.234,178.387,201.236,187.342,209.546,194.812z     M351.281,395.393c1.334-0.989,3.239-0.717,4.229,0.618c0.99,1.36,0.717,3.24-0.617,4.255l-56.57,42.075    c-0.67,0.494-1.484,0.667-2.253,0.568l-10.167-1.483l-35.295,26.243c-1.337,1.015-3.243,0.718-4.232-0.618    c-0.986-1.335-0.716-3.24,0.622-4.229l36.137-26.913c0.642-0.544,1.509-0.815,2.4-0.668l10.191,1.484L351.281,395.393z     M133.755,475.338c-1.681,0-3.043-1.361-3.043-3.043s1.362-3.042,3.043-3.042h175.202c1.66,0,3.018,1.36,3.018,3.042    s-1.357,3.043-3.018,3.043H133.755z M236.334,485.999c-1.656,0-3.042-1.361-3.042-3.043c0-1.683,1.386-3.042,3.042-3.042h121.229    c1.681,0,3.042,1.359,3.042,3.042c0,1.682-1.361,3.043-3.042,3.043H236.334z M369.98,485.999c-1.682,0-3.043-1.361-3.043-3.043    c0-1.683,1.361-3.042,3.043-3.042h15.164c1.681,0,3.043,1.359,3.043,3.042c0,1.682-1.362,3.043-3.043,3.043H369.98z     M126.855,485.678c-1.681,0-3.042-1.361-3.042-3.043s1.362-3.043,3.042-3.043h57.437c1.681,0,3.043,1.361,3.043,3.043    s-1.362,3.043-3.043,3.043H126.855z M318.281,66.78c-14.989-11.874-34.53-18.007-55.061-15.633    c-20.506,2.399-38.092,12.887-49.94,27.877c-11.824,14.94-17.958,34.407-15.631,54.863l0.049,0.347    c2.422,20.432,12.862,37.969,27.827,49.793c10.735,8.508,23.843,14.049,37.944,15.657h0.024h0.147l0.123,0.024h0.126l0.147,0.025    h0.123l0.147,0.023h0.049h0.077l0.123,0.025l0.147,0.025h0.123l0.15,0.023h0.123l0.123,0.025h0.073h0.074l0.126,0.025h0.123h0.147    l0.123,0.024h0.126l0.147,0.024h0.049h0.074l0.15,0.025h0.123h0.123l0.273,0.023h0.147h0.049l0.074,0.025h0.123    c4.257,0.272,8.657,0.148,13.037-0.346l0.05-0.025h0.122l0.147-0.024h0.05h0.077l0.147-0.025l0.123-0.024l0.122-0.024h0.151    l0.123-0.024l0.147-0.025h0.049h0.073l0.151-0.025l0.123-0.023h0.122l0.147-0.025l0.127-0.024l0.147-0.024h0.073l0.049-0.025    h0.123l0.151-0.025l0.123-0.023l0.146-0.025l0.127-0.024h0.123l0.098-0.025h0.05l0.122-0.024l0.151-0.024l0.123-0.024l0.122-0.025    l0.147-0.024l0.127-0.024h0.098h0.025l0.146-0.025l0.123-0.024l0.127-0.024l0.147-0.025l0.122-0.025l0.123-0.023l0.127-0.025    h0.024l0.122-0.024l0.123-0.024l0.147-0.025l0.127-0.024l0.122-0.024l0.147-0.025l0.123-0.024l0,0l0.126-0.024l0.123-0.025    l0.147-0.024l0.123-0.024l0.126-0.051l0.147-0.023l0.123-0.025l0,0l0.123-0.024l0.126-0.024l0.147-0.025l0.123-0.024l0.123-0.024    l0.126-0.05l0.147-0.024h0.024l0.099-0.025l0.123-0.024l0.126-0.024l0.123-0.025l0.147-0.049l0.122-0.025l0.127-0.024h0.049    l0.099-0.024l0.122-0.05l0.123-0.024l0.151-0.025l0.123-0.049l0.122-0.025l0.151-0.024h0.024l0.099-0.024l0.122-0.05l0.147-0.024    l0.127-0.05l0.27-0.05l0.123-0.049l0,0l0.127-0.025l0.122-0.023l0.397-0.125l0.122-0.023l0.147-0.051l0,0l0.123-0.024l0.126-0.049    l0.123-0.025l0.396-0.099l0.123-0.05l0,0l0.123-0.024l0.147-0.049l0.249-0.075l0.123-0.024l0.122-0.05l0.127-0.05h0.024    l0.123-0.024l0.123-0.049l0.122-0.024l0.127-0.051l0.122-0.023l0.123-0.051l0.123-0.049h0.024l0.127-0.025l0.122-0.049l0.123-0.05    l0.123-0.024l0.126-0.05l0.123-0.05l0.123-0.023l0,0l0.123-0.051l0.126-0.049l0.123-0.025l0.123-0.049l0.122-0.05l0.25-0.073    h0.024l0.098-0.051l0.123-0.049l0.372-0.123l0.123-0.051l0.123-0.049h0.024c13.333-4.75,24.738-13.159,33.294-23.943    c11.824-14.966,17.959-34.433,15.635-54.864l-0.049-0.37C343.687,96.116,333.225,78.604,318.281,66.78z" style="fill-rule:evenodd;clip-rule:evenodd;"/></g></g><g id="Layer_1"/></svg>